{"title":"Marvel'sThe Avengers(2012)MPEG-4[DaScubaDude]","uid":15491353,"size":1557204369,"categoryP":"video","categoryS":"movies","magnet":"?xt=urn:btih:8be32c183fb0cff7576965578dbfd02f1988659d&amp;dn=Marvel%27sThe+Avengers%282012%29MPEG-4%5BDaScubaDude%5D&amp;tr=udp%3A%2F%2Ftracker.leechers-paradise.org%3A6969&amp;tr=udp%3A%2F%2Fzer0day.ch%3A1337&amp;tr=udp%3A%2F%2Fopen.demonii.com%3A1337&amp;tr=udp%3A%2F%2Ftracker.coppersurfer.tk%3A6969&amp;tr=udp%3A%2F%2Fexodus.desync.com%3A6969","seeders":1,"leechers":0,"uploader":"dascuba","files":1,"time":1470371739,"description":"The Avengers (2012)\r\nPG-13 | 2h 23min | Action, Adventure, Sci-Fi | 4 May 2012 (USA)\r\nEarth's mightiest heroes must come together and learn to fight as a team if they are to stop the mischievous Loki and his alien army from enslaving humanity.\r\nDirector: Joss Whedon\r\nWriters: Joss Whedon (screenplay), Zak Penn (story) |\r\nStars: Robert Downey Jr., Chris Evans, Scarlett Johansson |\r\n\r\nGeneral\r\nComplete name                            : Marvel's the AvengersMARVELS_THE_AVENGERS_Title35.mp4\r\nFormat                                   : MPEG-4\r\nFormat profile                           : Base Media\r\nCodec ID                                 : isom (isom/iso2/avc1/mp41)\r\nFile size                                : 1.45 GiB\r\nDuration                                 : 2h 22mn\r\nOverall bit rate mode                    : Variable\r\nOverall bit rate                         : 1 454 Kbps\r\nMovie name                               : MARVELS_THE_AVENGERS\r\nGenre                                    : Action\r\nWriting application                      : Lavf54.6.100\r\n\r\nVideo\r\nID                                       : 1\r\nFormat                                   : AVC\r\nFormat/Info                              : Advanced Video Codec\r\nFormat profile                           :   \r\nFormat settings, CABAC                   : No\r\nFormat settings, ReFrames                : 6 frames\r\nCodec ID                                 : avc1\r\nCodec ID/Info                            : Advanced Video Coding\r\nDuration                                 : 2h 22mn\r\nBit rate                                 : 1 195 Kbps\r\nWidth                                    : 720 pixels\r\nHeight                                   : 404 pixels\r\nDisplay aspect ratio                     : 16:9\r\nFrame rate mode                          : Constant\r\nFrame rate                               : 29.970 (30000/1001) fps\r\nColor space                              : YUV\r\nChroma subsampling                       : 4:2:0\r\nBit depth                                : 8 bits\r\nScan type                                : Progressive\r\nBits/(Pixel*Frame)                       : 0.137\r\nStream size                              : 1.19 GiB (82%)\r\n\r\nAudio\r\nID                                       : 2\r\nFormat                                   : AAC\r\nFormat/Info                              : Advanced Audio Codec\r\nFormat profile                           : LC\r\nCodec ID                                 : 40\r\nDuration                                 : 2h 22mn\r\nBit rate mode                            : Variable\r\nBit rate                                 : 252 Kbps\r\nMaximum bit rate                         : 412 Kbps\r\nChannel(s)                               : 2 channels\r\nChannel(s)_Original                      : 6 channels\r\nChannel positions                        : Front: L C R, Side: L R, LFE\r\nSampling rate                            : 44.1 KHz\r\nFrame rate                               : 43.066 fps (1024 spf)\r\nCompression mode                         : Lossy\r\nStream size                              : 258 MiB (17%)\r\nDefault                                  : Yes\r\nAlternate group                          : 1","torrent":{"xt":"urn:btih:8be32c183fb0cff7576965578dbfd02f1988659d","amp;dn":"Marvel%27sThe+Avengers%282012%29MPEG-4%5BDaScubaDude%5D","amp;tr":["udp%3A%2F%2Ftracker.leechers-paradise.org%3A6969","udp%3A%2F%2Fzer0day.ch%3A1337","udp%3A%2F%2Fopen.demonii.com%3A1337","udp%3A%2F%2Ftracker.coppersurfer.tk%3A6969","udp%3A%2F%2Fexodus.desync.com%3A6969"],"infoHash":"8be32c183fb0cff7576965578dbfd02f1988659d","infoHashBuffer":{"type":"Buffer","data":[139,227,44,24,63,176,207,247,87,105,101,87,141,191,208,47,25,136,101,157]},"announce":[],"urlList":[]}}